/vscmnt/brussel_pixiu_data/_data_brussel/112/vsc11236/PredSimResults/SUBJ10_Dhondt2024_3seg/weighted-LRposFixed/worker_03.mot
version=1
nRows=4
nColumns=124
inDegrees=yes
endheader
                time	         pelvis_tilt	         pelvis_list	     pelvis_rotation	           pelvis_tx	           pelvis_ty	           pelvis_tz	       hip_flexion_r	     hip_adduction_r	      hip_rotation_r	        knee_angle_r	       ankle_angle_r	    subtalar_angle_r	         mtp_angle_r	       hip_flexion_l	     hip_adduction_l	      hip_rotation_l	        knee_angle_l	       ankle_angle_l	    subtalar_angle_l	         mtp_angle_l	    lumbar_extension	      lumbar_bending	     lumbar_rotation	          arm_flex_r	           arm_add_r	           arm_rot_r	        elbow_flex_r	          arm_flex_l	           arm_add_l	           arm_rot_l	        elbow_flex_l	glut_med1_r/activation	glut_med2_r/activation	glut_med3_r/activation	glut_min1_r/activation	glut_min2_r/activation	glut_min3_r/activation	semimem_r/activation	semiten_r/activation	bifemlh_r/activation	bifemsh_r/activation	    sar_r/activation	add_long_r/activation	add_brev_r/activation	add_mag1_r/activation	add_mag2_r/activation	add_mag3_r/activation	    tfl_r/activation	   pect_r/activation	   grac_r/activation	glut_max1_r/activation	glut_max2_r/activation	glut_max3_r/activation	iliacus_r/activation	  psoas_r/activation	quad_fem_r/activation	    gem_r/activation	   peri_r/activation	rect_fem_r/activation	vas_med_r/activation	vas_int_r/activation	vas_lat_r/activation	med_gas_r/activation	lat_gas_r/activation	 soleus_r/activation	tib_post_r/activation	flex_dig_r/activation	flex_hal_r/activation	tib_ant_r/activation	per_brev_r/activation	per_long_r/activation	per_tert_r/activation	ext_dig_r/activation	ext_hal_r/activation	glut_med1_l/activation	glut_med2_l/activation	glut_med3_l/activation	glut_min1_l/activation	glut_min2_l/activation	glut_min3_l/activation	semimem_l/activation	semiten_l/activation	bifemlh_l/activation	bifemsh_l/activation	    sar_l/activation	add_long_l/activation	add_brev_l/activation	add_mag1_l/activation	add_mag2_l/activation	add_mag3_l/activation	    tfl_l/activation	   pect_l/activation	   grac_l/activation	glut_max1_l/activation	glut_max2_l/activation	glut_max3_l/activation	iliacus_l/activation	  psoas_l/activation	quad_fem_l/activation	    gem_l/activation	   peri_l/activation	rect_fem_l/activation	vas_med_l/activation	vas_int_l/activation	vas_lat_l/activation	med_gas_l/activation	lat_gas_l/activation	 soleus_l/activation	tib_post_l/activation	flex_dig_l/activation	flex_hal_l/activation	tib_ant_l/activation	per_brev_l/activation	per_long_l/activation	per_tert_l/activation	ext_dig_l/activation	ext_hal_l/activation	 ercspn_r/activation	 ercspn_l/activation	 intobl_r/activation	 intobl_l/activation	 extobl_r/activation	 extobl_l/activation	
          1.06640232	         -2.91715371	         -0.24002751	          2.40561695	          1.19437060	          0.82105110	         -0.00162921	         29.25147139	          2.95337748	          4.29002070	        -13.29368060	          8.41106700	         -1.29338343	          0.23559245	        -16.87379865	          2.00337418	          9.92122738	         -5.80133361	          5.71727144	         11.70292947	         13.56033532	         -5.62238910	         -0.44575026	         -1.22240618	        -30.39737161	        -14.30369907	          3.84007331	         30.15159903	         27.70879759	        -13.45374501	         15.76918598	         47.41637125	          0.01387062	          0.01298397	          0.01000495	          0.01018529	          0.01000305	          0.01000309	          0.12694547	          0.03367925	          0.01177852	          0.01000209	          0.01694136	          0.07870572	          0.15008390	          0.11397074	          0.13184218	          0.09499346	          0.01000102	          0.01809764	          0.05071472	          0.01178003	          0.01362073	          0.06569331	          0.01832409	          0.01677629	          0.01723268	          0.01000588	          0.01000130	          0.01000020	          0.07413820	          0.07601079	          0.06304085	          0.01053124	          0.01000371	          0.01177728	          0.01000038	          0.01000116	          0.01000218	          0.29424794	          0.20462682	          0.12101936	          0.09448544	          0.29637641	          0.03537614	          0.20583537	          0.09575935	          0.05518148	          0.26956881	          0.22090983	          0.13687736	          0.01177006	          0.01151574	          0.01177537	          0.03088692	          0.08725447	          0.01000041	          0.01000052	          0.01000133	          0.01000536	          0.01000419	          0.34355134	          0.01000176	          0.01000411	          0.01635958	          0.01627162	          0.01171580	          0.19684593	          0.36880010	          0.01633528	          0.01633719	          0.05124949	          0.21857555	          0.01000104	          0.01000130	          0.01000106	          0.30059317	          0.33608406	          0.26079451	          0.24140528	          0.31799387	          0.37647407	          0.01387084	          0.02444466	          0.17578534	          0.01279092	          0.01327151	          0.01387229	          0.01387056	          0.01000001	          0.02749948	          0.01000053	          0.09079606	          0.01000059	
          1.07706635	         -2.90589751	         -0.47070553	          2.56207236	          1.20878736	          0.82054846	         -0.00139200	         28.64901603	          3.39950280	          4.34176476	        -13.14841585	          7.68314085	         -1.41121825	          0.24007247	        -16.83873602	          1.76179701	          9.79918171	         -7.58578854	          4.86988221	         12.05538768	         14.59389240	         -5.46658697	         -0.00028855	         -1.28170583	        -31.51731840	        -14.25524805	          3.79336589	         30.24978744	         27.71010685	        -13.45324653	         15.80306411	         48.61370483	          0.01177754	          0.01177643	          0.01000029	          0.01177772	          0.01177756	          0.01004820	          0.10778800	          0.02859679	          0.01000107	          0.01000028	          0.01438527	          0.06684078	          0.14874023	          0.17094600	          0.15146964	          0.08647707	          0.01000313	          0.02234606	          0.04306190	          0.01000265	          0.01156534	          0.05578030	          0.01633490	          0.01424769	          0.15280606	          0.01000111	          0.01000081	          0.01387074	          0.09771679	          0.08462844	          0.09344792	          0.01000002	          0.01000005	          0.01000000	          0.01000013	          0.01000107	          0.01000049	          0.29792418	          0.17525247	          0.11258446	          0.13242175	          0.32015787	          0.04465647	          0.24464922	          0.08130818	          0.04685397	          0.24805912	          0.18757218	          0.11622105	          0.01000284	          0.01000035	          0.01000028	          0.02622578	          0.07408708	          0.04303793	          0.01000145	          0.01000155	          0.01000351	          0.01000095	          0.29170573	          0.07749455	          0.01000083	          0.01389126	          0.01381667	          0.01000171	          0.16713991	          0.31314401	          0.01387024	          0.01387202	          0.04351538	          0.19589465	          0.01000060	          0.01000080	          0.01000069	          0.25523019	          0.28536520	          0.24179020	          0.23199527	          0.27501743	          0.34157710	          0.01177758	          0.02075728	          0.17432217	          0.01086071	          0.01126871	          0.01177886	          0.01177735	          0.01391487	          0.02334950	          0.02990421	          0.07709389	          0.01000042	
          1.08773037	         -2.89073305	         -0.70992430	          2.70608947	          1.22343796	          0.82004652	         -0.00116202	         28.00888413	          3.82302988	          4.42352417	        -13.54387707	          6.70214640	         -1.50893237	          0.24184401	        -16.69747889	          1.52577519	          9.66961196	         -9.55610650	          3.84338225	         12.39543655	         15.63208973	         -5.29869779	          0.45794427	         -1.33252264	        -32.40373990	        -14.19614656	          3.91874874	         29.91515416	         27.56874966	        -13.45584044	         15.77798339	         49.73268519	          0.01000022	          0.01000019	          0.01503495	          0.01000048	          0.01000045	          0.01000036	          0.09152158	          0.06648989	          0.04812576	          0.01634545	          0.01386264	          0.05675420	          0.13272365	          0.14515089	          0.12861205	          0.07342692	          0.01000083	          0.01897830	          0.10738903	          0.01000528	          0.02984909	          0.04736283	          0.01387038	          0.01387036	          0.16448357	          0.02125840	          0.01165604	          0.01177758	          0.08297027	          0.07185711	          0.07934562	          0.01633615	          0.01648074	          0.01387689	          0.01224904	          0.01178002	          0.01495139	          0.25296400	          0.17848679	          0.11389448	          0.11243787	          0.28980277	          0.03791737	          0.20772901	          0.06903786	          0.03978318	          0.21062471	          0.15926548	          0.09868200	          0.01201892	          0.01000933	          0.01001106	          0.02226806	          0.06290664	          0.09043739	          0.01475196	          0.01177896	          0.01177627	          0.01177973	          0.24768412	          0.07312487	          0.01001545	          0.01179547	          0.01173279	          0.01001042	          0.14191665	          0.26588706	          0.01177719	          0.01177886	          0.03694844	          0.16633223	          0.03030047	          0.01538267	          0.01179141	          0.21671299	          0.24230031	          0.20530136	          0.20142113	          0.23351470	          0.29002979	          0.01000023	          0.01762620	          0.18113024	          0.01000018	          0.01000006	          0.01000140	          0.01000003	          0.02622661	          0.01982580	          0.02791787	          0.06545953	          0.01387119	
          1.09839439	         -2.87312622	         -0.96867186	          2.83475401	          1.23820094	          0.81957649	         -0.00094704	         27.32499137	          4.21158093	          4.54729362	        -14.06408827	          5.62036943	         -1.59211227	          0.24198166	        -16.42807624	          1.28959742	          9.52181415	        -11.72804698	          2.63003332	         12.70079715	         16.61691818	         -5.12700504	          0.93905903	         -1.37433835	        -33.03519309	        -14.13708953	          4.23257181	         29.15784214	         27.30820456	        -13.46233537	         15.72851906	         50.74527771	          0.18982411	          0.21207584	          0.22200805	          0.15888233	          0.03041284	          0.10077144	          0.07770994	          0.05646017	          0.04086363	          0.01387976	          0.01177152	          0.04818954	          0.11269604	          0.12324736	          0.10920731	          0.09038438	          0.01000165	          0.01611591	          0.09118387	          0.16622052	          0.05700030	          0.05595623	          0.01177748	          0.01177744	          0.13966130	          0.01805066	          0.01000077	          0.01000033	          0.07044987	          0.06101346	          0.11350903	          0.01387085	          0.01399363	          0.01178271	          0.01040054	          0.01000237	          0.01269514	          0.38122638	          0.22998935	          0.11889511	          0.47492789	          0.38454829	          0.22460396	          0.21450583	          0.05861927	          0.03377945	          0.25266598	          0.13523064	          0.08378979	          0.01685688	          0.01000036	          0.01000027	          0.01890761	          0.05341347	          0.07679090	          0.01252619	          0.01000254	          0.01000424	          0.01000383	          0.21030605	          0.06209191	          0.01000096	          0.01001609	          0.01000103	          0.01000082	          0.12049988	          0.22576205	          0.01000018	          0.01000166	          0.03137252	          0.14470632	          0.02572837	          0.01306214	          0.01001256	          0.18400849	          0.20573440	          0.17431901	          0.17102452	          0.19827490	          0.24626117	          0.01000004	          0.06116599	          0.15737107	          0.01000040	          0.01000014	          0.01000033	          0.02902914	          0.05292631	          0.01683388	          0.02370475	          0.05558094	          0.01177788	
